<mxfile host="app.diagrams.net" modified="2023-11-07T02:14:04.668Z" agent="Mozilla/5.0 (Windows NT 10.0; Win64; x64) AppleWebKit/537.36 (KHTML, like Gecko) Chrome/105.0.0.0 Safari/537.36 Edg/105.0.1343.50" version="21.8.0" etag="sXhOsDvnxFZ5HjLvKXNU" type="github">
  <diagram name="第 1 页" id="GWT_r0lAw9DS3m42jBcg">
    <mxGraphModel>
      <root>
        <mxCell id="0" />
        <mxCell id="1" parent="0" />
      </root>
    </mxGraphModel>
  </diagram>
</mxfile>
